<svg fill="none" height="100" viewBox="0 0 100 100" width="100" xmlns="http://www.w3.org/2000/svg" xmlns:xlink="http://www.w3.org/1999/xlink"><clipPath id="a"><path d="m22 17h56.997v65.244h-56.997z"/></clipPath><g clip-path="url(#a)" fill="#000"><path clip-rule="evenodd" d="m27.2939 77.115c8.424 2.208 23.937 4.39 35.612-1.343 1.247-.596 2.145-1.694 2.585-2.991 1.116.183 2.194.386 3.268.6 8.603 1.715 8.135 5.288 2.747 7.491-5.388 2.202-23.428 1.358-30.44.207-1.141-.187-2.191-.346-3.164-.493-4.859-.733-7.806-1.178-10.608-3.471z" fill-rule="evenodd"/><path d="m47.4419 81.036c-6.882 0-13.12-.999-18.636-2.99-2.434-.874-3.469-3.945-3.614-6.309-.239-3.583-.683-9.793-1.165-16.567-1.4906-20.9027-2.0916-31.509-1.803-31.819l.296-.318h1.039l.281.53c.895 1.684 11.712 4.176 21.661 3.857l.776-.024c7.19-.223 20.574-.639 21.396-2.82l.243-.647h1.752l.007 1.058-2.715 47.202c-.57 4.613-5.018 7.611-8.915 8.123-3.683.483-7.221.725-10.604.725zm-23.41-54.9c.291 5.07 1.253 18.551 1.989 28.892.483 6.777.927 12.99 1.167 16.581.113 1.84.88 4.047 2.296 4.556 7.925 2.862 17.447 3.59 28.302 2.164 3.197-.419 6.76-2.899 7.185-6.32l2.581-44.917c-3.479 1.614-11.021 1.988-21.211 2.304l-.775.024c-6.733.215-17.084-.982-21.533-3.283z"/><path d="m68.61 24.894c-.312 0-.62-.146-.814-.419-.034-.045-4.312-5.475-21.448-5.475-20.225 0-22.351 4.044-22.355 4.085-.066.547-.564.933-1.114.871-.549-.068-.938-.567-.871-1.115.119-.976 1.857-5.841 24.339-5.841 18.357 0 22.892 6.055 23.075 6.312.321.449.217 1.074-.232 1.395-.176.125-.379.187-.58.187z"/><path d="m71.3049 59.851c-1.966 0-3.669-.646-4.433-.935l-.263-.098c-.522-.179-.801-.748-.622-1.27s.749-.803 1.271-.622c.083.028.191.069.323.119 1.143.434 4.182 1.583 6.693-.016 1.66-1.018 1.911-3.039 2.367-7.919.527-5.689.67-8.052-1.122-9.421-2.484-2.042-6.542-1.443-7.33-1.302-.549.1-1.063-.265-1.16-.809s.265-1.063.809-1.16c1.322-.234 5.871-.809 8.924 1.704 2.715 2.072 2.415 5.305 1.872 11.173-.459 4.901-.735 7.859-3.3 9.43-1.327.845-2.735 1.125-4.029 1.125z"/><path d="m65.691 26.271c0 1.241-10.52 4.343-19.479 3.619-15.474-1.137-19.275-2.068-19.275-4.549 0-1.241 10.452-2.275 19.275-2.068 9.027.31 19.547 1.758 19.479 2.998z"/><path d="m43.963 59.616c-.466 0-.931-.161-1.304-.484-3.557-3.083-11.52-10.682-8.661-14.674 1.47-2.052 3.105-3.092 4.862-3.092h.021c1.748.009 3.473 1.035 5.137 3.055 1.268-1.578 3.123-3.545 5.436-3.545h.026c1.512.01 2.918.866 4.18 2.544 3.711 4.934-3.152 11.049-7.253 14.702-.39.347-.749.667-1.064.956-.392.358-.887.538-1.38.538zm-8.338-13.995c-1.221 1.705 2.288 6.75 8.344 11.999.345-.312.711-.638 1.107-.992 3.352-2.986 9.59-8.543 6.986-12.006-.867-1.153-1.74-1.741-2.595-1.746h-.013c-1.725 0-3.496 2.293-4.449 3.526l-1.041 1.338-.776-1.106c-1.043-1.486-2.639-3.259-4.316-3.268h-.011c-1.076 0-2.165.758-3.236 2.255z"/></g></svg>